# xmcd
#
# Track frame offsets:
#	150
#	19438
#	36857
#	53984
#	72463
#	90150
#	112363
#	134991
#	151389
#	167736
#	188003
#	206174
#	225338
#	245529
#
# Disc length: 3588 seconds
#
# Revision: 3
# Processed by: cddbd v1.5.2PL0 Copyright (c) Steve Scherf et al.
# Submitted via: EasyCDDAExtractor 11.0.0.1
#
DISCID=cb0e020e
DTITLE=ΒΑΡΔΗΣ ΑΝΤΩΝΗΣ - ΧΑΜΟΓΕΛΑΣΕ ΨΥΧΗ ΜΟΥ
DYEAR=1999
DGENRE=ΛΑΪΚΑ
TTITLE0=ΦΟΒΑΜΑΙ ΤΟ ΑΥΡΙΟ
TTITLE1=ΑΛΛΟΥ ΕΓΩ
TTITLE2=ΜΗΝ ΤΟΛΜΗΣΕΙΣ
TTITLE3=ΔΕΝ ΜΠΟΡΩ ΝΑ ΣΕ ΞΕΧΑΣΩ
TTITLE4=MI AMOR
TTITLE5=ΓΙΑΤΙ ΞΕΧΝΑΣ
TTITLE6=ΜΑΙΡΗ
TTITLE7=ΤΟ ΑΠΟΤΕΛΕΣΜΑ
TTITLE8=ΟΛΑ ΜΟΥ ΤΑ ΠΗΡΕΣ
TTITLE9=ΑΠΟΚΛΕΙΕΤΑΙ
TTITLE10=ΝΑ ΜΕ ΑΓΑΠΑΣ
TTITLE11=ΚΑΙ ΘΑ ΣΕ ΑΓΑΠΩ
TTITLE12=ΧΑΜΟΓΕΛΑΣΕ ΨΥΧΗ ΜΟΥ
TTITLE13=ΓΙΑΤΙ ΞΕΧΝΑΣ ROCK VERSION
EXTD=
EXTT0=
EXTT1=
EXTT2=
EXTT3=
EXTT4=
EXTT5=
EXTT6=
EXTT7=
EXTT8=
EXTT9=
EXTT10=
EXTT11=
EXTT12=
EXTT13=
PLAYORDER=
